<?xml version="1.0" encoding="UTF-8" standalone="no"?><!-- Generator: Gravit.io --><svg xmlns="http://www.w3.org/2000/svg" xmlns:xlink="http://www.w3.org/1999/xlink" style="isolation:isolate" viewBox="581.5 199.955 13 13" width="13pt" height="13pt"><defs><clipPath id="_clipPath_Fou9qnS8FmyyU49DolkEg2f63jotrcHM"><rect x="581.5" y="199.955" width="13" height="13"/></clipPath></defs><g clip-path="url(#_clipPath_Fou9qnS8FmyyU49DolkEg2f63jotrcHM)"><rect x="581.5" y="199.955" width="13" height="13" transform="matrix(1,0,0,1,0,0)" fill="rgb(0,0,0)"/><path d=" M 588.182 207.909 L 587.091 207.909 L 587.091 206.964 C 587.091 206.836 587.036 206.727 586.964 206.636 L 586.545 206.218 C 586.455 206.145 586.345 206.091 586.218 206.091 L 586 206.091 L 586 207.909 L 584.909 207.909 L 584.909 205 L 586.491 205 C 586.727 205 586.964 205.091 587.127 205.273 L 587.909 206.055 C 588.091 206.218 588.182 206.455 588.182 206.691 L 588.182 207.909 Z  M 592.909 205 L 592.909 205.945 C 592.909 206.073 592.855 206.182 592.782 206.273 L 592.364 206.691 C 592.273 206.782 592.164 206.818 592.036 206.818 L 591.582 206.818 C 591.727 206.655 591.818 206.436 591.818 206.218 L 591.818 205 L 590.727 205 L 590.727 205.945 C 590.727 206.073 590.673 206.182 590.6 206.273 L 590.182 206.691 C 590.091 206.782 589.982 206.818 589.855 206.818 L 589.636 206.818 L 589.636 205 L 588.545 205 L 588.545 207.909 L 590.127 207.909 C 590.364 207.909 590.6 207.818 590.764 207.636 L 591.273 207.127 L 591.273 207.909 L 592.309 207.909 C 592.545 207.909 592.782 207.818 592.945 207.636 L 593.727 206.855 C 593.909 206.691 594 206.455 594 206.218 L 594 205 L 592.909 205 Z  M 584.545 205 L 582 205 L 582 206.091 L 582.727 206.091 L 582.727 207.909 L 583.818 207.909 L 583.818 206.091 L 584.545 206.091" fill="rgb(255,255,255)"/></g></svg>